<svg width="232" height="190" viewBox="0 0 232 190" fill="none" xmlns="http://www.w3.org/2000/svg">
<g clip-path="url(#clip0_3380_237)">
<path d="M146 70H52C45.3726 70 40 75.3726 40 82V142C40 148.627 45.3726 154 52 154H146C152.627 154 158 148.627 158 142V82C158 75.3726 152.627 70 146 70Z" fill="white" stroke="#C6C6C6" stroke-width="2"/>
<path d="M43 78L99 118L155 78" stroke="#F0997B" stroke-width="2.5" stroke-linecap="round" stroke-linejoin="round"/>
<path d="M127 36H71C67.134 36 64 39.134 64 43V75C64 78.866 67.134 82 71 82H127C130.866 82 134 78.866 134 75V43C134 39.134 130.866 36 127 36Z" fill="#FFFDF7" stroke="#C6C6C6" stroke-width="2"/>
<path d="M79 50H74C72.8954 50 72 50.8954 72 52V57C72 58.1046 72.8954 59 74 59H79C80.1046 59 81 58.1046 81 57V52C81 50.8954 80.1046 50 79 50Z" stroke="#F0997B" stroke-width="1.6"/>
<path d="M90 50H85C83.8954 50 83 50.8954 83 52V57C83 58.1046 83.8954 59 85 59H90C91.1046 59 92 58.1046 92 57V52C92 50.8954 91.1046 50 90 50Z" stroke="#F0997B" stroke-width="1.6"/>
<path d="M101 50H96C94.8954 50 94 50.8954 94 52V57C94 58.1046 94.8954 59 96 59H101C102.105 59 103 58.1046 103 57V52C103 50.8954 102.105 50 101 50Z" stroke="#F0997B" stroke-width="1.6"/>
<path d="M112 50H107C105.895 50 105 50.8954 105 52V57C105 58.1046 105.895 59 107 59H112C113.105 59 114 58.1046 114 57V52C114 50.8954 113.105 50 112 50Z" stroke="#F0997B" stroke-width="1.6"/>
<path d="M123 50H118C116.895 50 116 50.8954 116 52V57C116 58.1046 116.895 59 118 59H123C124.105 59 125 58.1046 125 57V52C125 50.8954 124.105 50 123 50Z" stroke="#F0997B" stroke-width="1.6"/>
<path d="M124 66H74C72.8954 66 72 66.8954 72 68C72 69.1046 72.8954 70 74 70H124C125.105 70 126 69.1046 126 68C126 66.8954 125.105 66 124 66Z" fill="#CDEBDD"/>
<path d="M168 60L202 46L190 78L184 66L168 60Z" fill="#00B334"/>
<path d="M168 60L190 66H184L168 60Z" fill="#2F7D00"/>
<path d="M160 138C152 131 148 126 153 122C156 120 159 122 160 125C161 122 164 120 167 122C172 126 168 131 160 138Z" fill="#F0997B"/>
<path opacity="0.7" d="M48 56C50.2091 56 52 54.2091 52 52C52 49.7909 50.2091 48 48 48C45.7909 48 44 49.7909 44 52C44 54.2091 45.7909 56 48 56Z" fill="#EAB04C"/>
</g>
<defs>
<clipPath id="clip0_3380_237">
<rect width="232" height="190" fill="white"/>
</clipPath>
</defs>
</svg>
